<svg xmlns="http://www.w3.org/2000/svg" xmlns:xlink="http://www.w3.org/1999/xlink" id="Livello_1" x="0px" y="0px" viewBox="0 0 281 118.2" style="enable-background:new 0 0 281 118.2;" xml:space="preserve"><style type="text/css">	.st0{fill:#8DC63F;}	.st1{fill:#1C75BC;}</style><g>	<g>		<ellipse transform="matrix(0.8507 -0.5257 0.5257 0.8507 -1.8514 38.9976)" class="st0" cx="67.7" cy="22.8" rx="7.7" ry="7.7"></ellipse>	</g>	<g>		<path class="st1" d="M88.3,104h5.2v0.4c0,0.9-0.1,1.8-0.3,2.5c-0.2,0.7-0.6,1.3-1.1,1.9c-1.2,1.3-2.6,2-4.4,2   c-1.8,0-3.3-0.6-4.5-1.9c-1.3-1.3-1.9-2.8-1.9-4.6c0-1.8,0.6-3.4,1.9-4.6c1.3-1.3,2.8-1.9,4.7-1.9c1,0,1.9,0.2,2.7,0.6   c0.8,0.4,1.6,1.1,2.4,2l-1.4,1.3c-1-1.4-2.3-2.1-3.8-2.1c-1.3,0-2.4,0.5-3.3,1.4c-0.9,0.9-1.4,2-1.4,3.4c0,1.4,0.5,2.6,1.5,3.5   c0.9,0.8,2,1.3,3,1.3c0.9,0,1.8-0.3,2.5-0.9c0.7-0.6,1.2-1.4,1.2-2.3h-3.1V104z"></path>		<path class="st1" d="M99.4,98v10.8h3.7v1.8h-5.6V98H99.4z"></path>		<path class="st1" d="M105.4,104.2c0-1.8,0.6-3.3,1.9-4.6c1.3-1.3,2.8-1.9,4.7-1.9c1.8,0,3.3,0.6,4.6,1.9c1.3,1.3,1.9,2.8,1.9,4.6   c0,1.8-0.6,3.3-1.9,4.6c-1.3,1.3-2.9,1.9-4.7,1.9c-1.6,0-3.1-0.6-4.4-1.7C106.1,107.9,105.4,106.2,105.4,104.2z M107.3,104.2   c0,1.4,0.5,2.5,1.4,3.4c0.9,0.9,2,1.3,3.2,1.3c1.3,0,2.4-0.5,3.3-1.4c0.9-0.9,1.4-2,1.4-3.4c0-1.3-0.4-2.5-1.3-3.4   c-0.9-0.9-2-1.4-3.3-1.4c-1.3,0-2.4,0.5-3.3,1.4C107.8,101.8,107.3,102.9,107.3,104.2z"></path>		<path class="st1" d="M122.6,110.5V98h1.9c0.8,0,1.5,0.1,2,0.2c0.5,0.1,0.9,0.4,1.3,0.7c0.4,0.3,0.6,0.7,0.8,1.2   c0.2,0.5,0.3,1,0.3,1.5c0,0.9-0.3,1.7-1,2.3c0.7,0.2,1.2,0.6,1.6,1.2c0.4,0.6,0.6,1.2,0.6,2c0,1-0.3,1.8-1,2.5   c-0.4,0.4-0.9,0.7-1.4,0.9c-0.6,0.2-1.3,0.2-2.1,0.2H122.6z M124.5,103.4h0.6c0.7,0,1.2-0.2,1.5-0.5c0.3-0.3,0.5-0.8,0.5-1.4   c0-0.6-0.2-1-0.5-1.3c-0.3-0.3-0.8-0.5-1.5-0.5h-0.7V103.4z M124.5,108.8h1.2c0.9,0,1.5-0.2,1.9-0.5c0.4-0.4,0.6-0.8,0.6-1.4   c0-0.5-0.2-1-0.6-1.4c-0.4-0.4-1.1-0.5-2.1-0.5h-1V108.8z"></path>		<path class="st1" d="M141.3,107.5h-5.4l-1.4,3h-2l6.2-13.3l6,13.3h-2.1L141.3,107.5z M140.5,105.7l-1.9-4.3l-2,4.3H140.5z"></path>		<path class="st1" d="M149.8,98v10.8h3.7v1.8h-5.6V98H149.8z"></path>		<path class="st1" d="M170.7,99.8h-5v3h4.9v1.8h-4.9v4.2h5v1.8h-6.9V98h6.9V99.8z"></path>		<path class="st1" d="M174.8,110.5V98h2.6c1.3,0,2.3,0.1,3,0.4c0.8,0.2,1.5,0.7,2.1,1.2c1.3,1.2,1.9,2.7,1.9,4.7   c0,1.9-0.7,3.5-2,4.7c-0.7,0.6-1.4,1-2.1,1.2c-0.7,0.2-1.7,0.3-3,0.3H174.8z M176.7,108.8h0.9c0.9,0,1.6-0.1,2.1-0.3   c0.6-0.2,1.1-0.5,1.5-0.9c0.9-0.9,1.4-2,1.4-3.3c0-1.4-0.5-2.5-1.4-3.4c-0.8-0.8-2.1-1.1-3.7-1.1h-0.9V108.8z"></path>		<path class="st1" d="M190.5,98v7.6c0,1.1,0.2,1.9,0.5,2.4c0.5,0.7,1.3,1.1,2.2,1.1c1,0,1.7-0.4,2.2-1.1c0.4-0.5,0.5-1.3,0.5-2.4   V98h1.9v8.1c0,1.3-0.4,2.4-1.2,3.3c-0.9,1-2.1,1.4-3.4,1.4c-1.4,0-2.5-0.5-3.4-1.4c-0.8-0.9-1.2-1.9-1.2-3.3V98H190.5z"></path>		<path class="st1" d="M211.8,98.7v2.2c-1.1-0.9-2.2-1.4-3.4-1.4c-1.3,0-2.4,0.5-3.3,1.4c-0.9,0.9-1.3,2-1.3,3.4   c0,1.3,0.4,2.4,1.3,3.3c0.9,0.9,2,1.4,3.3,1.4c0.7,0,1.2-0.1,1.7-0.3c0.3-0.1,0.5-0.3,0.8-0.4c0.3-0.2,0.6-0.4,0.9-0.7v2.3   c-1.1,0.6-2.2,0.9-3.4,0.9c-1.8,0-3.3-0.6-4.6-1.9c-1.3-1.3-1.9-2.8-1.9-4.6c0-1.6,0.5-3,1.6-4.3c1.3-1.5,3-2.3,5-2.3   C209.7,97.7,210.8,98.1,211.8,98.7z"></path>		<path class="st1" d="M223.6,107.5h-5.4l-1.4,3h-2l6.2-13.3l6,13.3h-2.1L223.6,107.5z M222.8,105.7l-1.9-4.3l-2,4.3H222.8z"></path>		<path class="st1" d="M233,99.8v10.8h-1.9V99.8h-2.9V98h7.7v1.8H233z"></path>		<path class="st1" d="M241.1,98v12.6h-1.9V98H241.1z"></path>		<path class="st1" d="M245.2,104.2c0-1.8,0.6-3.3,1.9-4.6c1.3-1.3,2.8-1.9,4.7-1.9c1.8,0,3.3,0.6,4.6,1.9c1.3,1.3,1.9,2.8,1.9,4.6   c0,1.8-0.6,3.3-1.9,4.6c-1.3,1.3-2.9,1.9-4.7,1.9c-1.6,0-3.1-0.6-4.4-1.7C245.9,107.9,245.2,106.2,245.2,104.2z M247.1,104.2   c0,1.4,0.5,2.5,1.4,3.4c0.9,0.9,2,1.3,3.2,1.3c1.3,0,2.4-0.5,3.3-1.4c0.9-0.9,1.4-2,1.4-3.4c0-1.3-0.4-2.5-1.3-3.4   c-0.9-0.9-2-1.4-3.3-1.4c-1.3,0-2.4,0.5-3.3,1.4C247.5,101.8,247.1,102.9,247.1,104.2z"></path>		<path class="st1" d="M262.3,110.5V97.1l9.2,9.6V98h1.9v13.3l-9.2-9.6v8.8H262.3z"></path>	</g>	<path class="st1" d="M203.6,4.9h-14.4v23.3c-4.3-2.5-9.3-4-14.7-4c-16,0-29.1,13-29.1,29.1c0,16,13,29.1,29.1,29.1  c5.4,0,10.4-1.5,14.7-4v4h14.4V4.9L203.6,4.9z M174.6,68.2c-8.2,0-14.9-6.7-14.9-14.9s6.7-14.9,14.9-14.9c8.2,0,14.9,6.7,14.9,14.9  S182.8,68.2,174.6,68.2L174.6,68.2z"></path>	<path class="st1" d="M259.4,24.4v29.2c0,0.3,0,0.7-0.1,1.2c-0.8,7.5-7.1,13.3-14.8,13.3c-8.1,0-14.7-6.6-14.9-14.7V24.4h-14.2v28.5  c0,0.1,0,0.2,0,0.3c0,16,13,29.1,29.1,29.1c5.4,0,10.5-1.5,14.9-4.1v4.1h14.2V24.4H259.4z"></path>	<g>		<path class="st1" d="M135.2,46.1c-3.2-12.6-14.6-21.9-28.2-21.9c-16,0-29.1,13-29.1,29.1s13,29.1,29.1,29.1   c5.9,0,11.5-1.8,16.1-4.9L115,65.9c-2.3,1.4-5,2.3-7.9,2.3c-5.6,0-10.5-3.1-13-7.7h17h9.1h4.2h11c0.6-2.3,0.9-4.7,0.9-7.2   S135.8,48.4,135.2,46.1z M107.1,38.4c5.6,0,10.5,3.1,13,7.7H94C96.6,41.5,101.5,38.4,107.1,38.4z"></path>		<polygon class="st1" points="114.7,65.4 115,65.9 115,65.9   "></polygon>	</g>	<path class="st1" d="M38.7,96.4c8.2,0,14.9,6.7,14.9,14.9h14.2c0-16-13-29.1-29.1-29.1c-16,0-29.1,13-29.1,29.1h14.2  C23.8,103.1,30.5,96.4,38.7,96.4z"></path>	<path class="st1" d="M38.7,38.4c8.2,0,14.9,6.7,14.9,14.9c0,8.2-6.7,14.9-14.9,14.9s-14.9-6.7-14.9-14.9  C23.8,45.1,30.5,38.4,38.7,38.4 M38.7,24.2c-16,0-29.1,13-29.1,29.1c0,16,13,29.1,29.1,29.1c16,0,29.1-13,29.1-29.1  C67.7,37.2,54.7,24.2,38.7,24.2L38.7,24.2z"></path></g></svg>